<svg id="Layer_1" height="512" viewBox="0 0 512 512" width="512" xmlns="http://www.w3.org/2000/svg" data-name="Layer 1"><path d="m256 .037c141.383 0 256 114.587 256 255.963s-114.617 256.035-256 256.035-256-114.659-256-256.035 114.623-255.963 256-255.963zm136.955 195.9a5.8 5.8 0 0 0 -.116-6.251l-5.979-9.757a36.975 36.975 0 0 0 -32.591-18.26h-152.159a9.882 9.882 0 0 1 -6.907-2.827l-33.781-33.217h-35.145l44.954 70.611a5.809 5.809 0 0 0 5.224 2.865h48.611l8.039-13.928a9.85 9.85 0 1 1 17.064 9.845l-27.947 48.382h18.109l59.523-60.225a9.838 9.838 0 0 1 13.988 13.837l-2.061 2.087h75.775a5.8 5.8 0 0 0 5.4-3.164zm-53.632 77.281a109.489 109.489 0 0 0 -20.111-54.429h-26.527c-.116 0-.232-.015-.348-.018l-8.155 8.269a249.25 249.25 0 0 1 5.862 46.178zm-75.6 115.04a111.058 111.058 0 0 0 75.6-95.354h-49.25c-1.045 28.768-6.529 55.624-15.729 76.485a104.2 104.2 0 0 1 -10.622 18.869zm-145.078-95.358a111.028 111.028 0 0 0 75.571 95.354 102.512 102.512 0 0 1 -10.593-18.869c-9.2-20.861-14.713-47.717-15.729-76.485zm110.339 96.777c9.315 0 19.531-10.558 27.338-28.247 8.155-18.46 13.059-42.5 14.046-68.53h-82.768c.987 26.026 5.863 50.07 14.018 68.53 7.806 17.689 18.051 28.247 27.367 28.247zm-32.33-131.513a9.788 9.788 0 0 1 0-9.844l17.064-29.535h-17.354c-5.05 16.1-8.039 34.689-8.765 54.429h82.769a241.879 241.879 0 0 0 -2.931-29.25l-15.991 16.2a9.887 9.887 0 0 1 -7.023 2.925h-39.237a9.879 9.879 0 0 1 -8.532-4.922zm-44.374-55.046a110.427 110.427 0 0 0 -33.635 70.1h49.249a237.047 237.047 0 0 1 7.981-54.447 25.375 25.375 0 0 1 -21.244-11.959l-2.351-3.692zm92.84-84.9 13.726 23.757h23.972l-23.449-23.757zm158.543 51.423a56.8 56.8 0 0 0 -49.4-27.666h-44.542a10.264 10.264 0 0 0 -1.887-2.716l-37.379-37.8a9.774 9.774 0 0 0 -6.994-2.925h-35.377a9.844 9.844 0 0 0 -8.532 14.766l16.542 28.679h-29.95l-33.781-33.218a9.83 9.83 0 0 0 -6.907-2.826h-57.114a9.849 9.849 0 0 0 -8.3 15.131l41.5 65.168a130.236 130.236 0 0 0 -43.042 96.823c0 71.947 58.536 130.48 130.48 130.48s130.483-58.537 130.483-130.48a129.294 129.294 0 0 0 -16.919-64.27h45.012a25.889 25.889 0 0 0 22.085-39.387z" fill-rule="evenodd"/></svg>