<?xml version="1.0" encoding="iso-8859-1"?>
<!-- Generator: Adobe Illustrator 19.0.0, SVG Export Plug-In . SVG Version: 6.00 Build 0)  -->
<svg version="1.1" id="Capa_1" xmlns="http://www.w3.org/2000/svg" xmlns:xlink="http://www.w3.org/1999/xlink" x="0px" y="0px"
	 viewBox="0 0 448.2 448.2" style="enable-background:new 0 0 448.2 448.2;" xml:space="preserve">
<g>
	<g>
		<path d="M57.148,135.2c16.2-31.2,40.8-57.2,71.1-75.1l-8.2-13.7c-97.1,57.4-129.1,182.7-71.5,279.7c19.4,32.8,47.6,59.5,81.5,77.1
			l7.4-14.2C45.148,341.1,9.148,227.4,57.148,135.2z"/>
	</g>
</g>
<g>
	<g>
		<path d="M393.348,107.8c-17.7-26.2-41.2-48-68.8-63.6l-7.9,13.9c59.1,33.5,95.5,96.1,95.6,163.9c0,62.6-31.1,121-83,156l9,13.3
			C431.747,328.2,456.448,201.3,393.348,107.8z"/>
	</g>
</g>
<g>
	<g>
		<path d="M344.648,195.5l-1.2-4.8c-6.7-25.4-21.3-48.1-41.7-64.7c-0.5-0.4-1.1-0.8-1.6-1.2l-0.8-0.6
			c-54-41.6-131.6-31.6-173.2,22.4c-12.7,16.5-21,36-24.2,56.7c-5.1,32.8,3.3,66.2,23.2,92.7l1.7,2.4c0.3,0.4,0.6,0.9,1,1.3
			c11,13.6,24.7,24.7,40.2,32.6c35.2,17.9,76.9,17.9,112.1-0.1C330.247,306.7,356.847,250.5,344.648,195.5z M327.348,192l-15.1,20.1
			h-12c-4.4,0-8,3.6-8,8v19.1l-5.3,2.6l-12.1-18.1c-1.1-1.7-2.8-2.8-4.7-3.3l-32-8c-2.2-0.6-4.5-0.2-6.4,1.1l-24,16
			c-2.2,1.5-3.5,4-3.5,6.7v36.7l-24-24v-58l21.3-28.4l44.6-22.3h47.7C309.747,153.8,321.448,171.8,327.348,192z M180.247,123.8v4.3
			l-26.7,20h-7.6C155.648,137.8,167.348,129.6,180.247,123.8z M131.548,277c-9.9-16.7-15.1-35.7-15.1-55c0-2.5,0.1-5,0.3-7.5
			l16.6,4.2l6.6,33L131.548,277z M187.848,323.3l10.8-7.2h36l21.3,8.5C233.747,331.7,209.747,331.2,187.848,323.3z M276.747,315.6
			l-37.5-14.9c-1-0.4-2-0.6-3-0.6h-40c-1.6,0-3.1,0.5-4.4,1.3l-20.9,13.9c-10.5-6-19.9-13.6-27.8-22.7l12.7-38.1
			c0.4-1.3,0.5-2.7,0.2-4.1l-8-40c-0.6-3-2.9-5.4-5.9-6.2l-22.9-5.7c2.7-12.3,7.5-23.9,14.3-34.5h22.7c1.7,0,3.4-0.6,4.8-1.6l32-24
			c2-1.5,3.2-3.9,3.2-6.4v-14c24.2-6.5,49.9-4.4,72.7,6.1h-24.7c-1.2,0-2.5,0.3-3.6,0.8l-48,24c-1.1,0.6-2.1,1.4-2.8,2.4l-24,32
			c-1,1.4-1.6,3.1-1.6,4.8v64c0,2.1,0.8,4.2,2.3,5.7l32,32c3.1,3.1,8.2,3.1,11.3,0l8-8c1.5-1.5,2.3-3.5,2.3-5.7v-35.7l17.5-11.7
			l25.6,6.4l14.3,21.4c2.2,3.4,6.6,4.5,10.2,2.7l16-8c2.7-1.4,4.4-4.1,4.4-7.2v-16h8c2.5,0,4.9-1.2,6.4-3.2l8.5-11.4
			c0.2,2.8,0.5,5.6,0.5,8.5C331.648,260.8,310.648,296.6,276.747,315.6z"/>
	</g>
</g>
<g>
	<g>
		<path d="M285.648,375.6l-13.7,20.5h-41.6l16.7-27.9l-13.7-8.2l-21.6,36.1h-47.5v16h47.5l21.7,36.1l13.7-8.2l-16.8-27.9h45.9
			c2.7,0,5.2-1.3,6.7-3.6l16-24L285.648,375.6z"/>
	</g>
</g>
<g>
	<g>
		<path d="M244.747,36.1L223.047,0l-13.7,8.2l16.8,27.9h-41.6l-13.6-20.4l-13.3,8.9l16,24c1.4,2.2,3.9,3.5,6.6,3.5h45.9l-16.7,27.9
			l13.7,8.2l21.6-36.1h47.5v-16H244.747z"/>
	</g>
</g>
<g>
</g>
<g>
</g>
<g>
</g>
<g>
</g>
<g>
</g>
<g>
</g>
<g>
</g>
<g>
</g>
<g>
</g>
<g>
</g>
<g>
</g>
<g>
</g>
<g>
</g>
<g>
</g>
<g>
</g>
</svg>
