<svg id="Capa_1" enable-background="new 0 0 512.604 512.604" height="512" viewBox="0 0 512.604 512.604" width="512" xmlns="http://www.w3.org/2000/svg"><g><path d="m450.896 272.139c-4.142 0-7.5 3.357-7.5 7.5v198.713c0 10.616-8.637 19.253-19.253 19.253h-389.101c-10.616 0-19.253-8.637-19.253-19.253v-51.118c0-4.143-3.358-7.5-7.5-7.5s-7.5 3.357-7.5 7.5v51.118c0 18.887 15.366 34.253 34.253 34.253h389.101c18.887 0 34.253-15.366 34.253-34.253v-198.713c0-4.143-3.358-7.5-7.5-7.5z"/><path d="m8.288 402.771c4.142 0 7.5-3.357 7.5-7.5v-206.838h202.064c4.142 0 7.5-3.357 7.5-7.5s-3.358-7.5-7.5-7.5h-202.064v-28.693c0-10.616 8.637-19.253 19.253-19.253h30.902c4.142 0 7.5-3.357 7.5-7.5s-3.358-7.5-7.5-7.5h-30.901c-18.887 0-34.253 15.366-34.253 34.253v250.531c-.001 4.142 3.357 7.5 7.499 7.5z"/><path d="m97.906 125.486h115.59c4.142 0 7.5-3.357 7.5-7.5s-3.358-7.5-7.5-7.5h-115.59c-4.142 0-7.5 3.357-7.5 7.5s3.358 7.5 7.5 7.5z"/><path d="m108.8 142.225c-4.142 0-7.5 3.357-7.5 7.5s3.358 7.5 7.5 7.5h9.156c4.142 0 7.5-3.357 7.5-7.5s-3.358-7.5-7.5-7.5z"/><path d="m78.646 387.771h-30.589c-9.133 0-16.563 7.431-16.563 16.563v23.558c0 9.133 7.43 16.563 16.563 16.563h30.589c9.133 0 16.564-7.431 16.564-16.563v-23.558c-.001-9.133-7.431-16.563-16.564-16.563zm1.563 40.121c0 .862-.702 1.563-1.564 1.563h-30.588c-.862 0-1.563-.701-1.563-1.563v-23.558c0-.862.701-1.563 1.563-1.563h30.589c.862 0 1.564.701 1.564 1.563v23.558z"/><path d="m161.513 387.771h-30.589c-9.133 0-16.563 7.431-16.563 16.563v23.558c0 9.133 7.43 16.563 16.563 16.563h30.589c9.133 0 16.563-7.431 16.563-16.563v-23.558c.001-9.133-7.43-16.563-16.563-16.563zm1.564 40.121c0 .862-.701 1.563-1.563 1.563h-30.589c-.862 0-1.563-.701-1.563-1.563v-23.558c0-.862.701-1.563 1.563-1.563h30.589c.862 0 1.563.701 1.563 1.563z"/><path d="m244.38 387.771h-30.589c-9.133 0-16.563 7.431-16.563 16.563v23.558c0 9.133 7.43 16.563 16.563 16.563h30.589c9.133 0 16.563-7.431 16.563-16.563v-23.558c.001-9.133-7.429-16.563-16.563-16.563zm1.564 40.121c0 .862-.701 1.563-1.563 1.563h-30.589c-.862 0-1.563-.701-1.563-1.563v-23.558c0-.862.701-1.563 1.563-1.563h30.589c.862 0 1.563.701 1.563 1.563z"/><path d="m280.096 427.892c0 9.133 7.43 16.563 16.563 16.563h30.589c9.133 0 16.563-7.431 16.563-16.563v-23.558c0-9.133-7.43-16.563-16.563-16.563h-30.589c-9.133 0-16.563 7.431-16.563 16.563zm15-23.558c0-.862.701-1.563 1.563-1.563h30.589c.862 0 1.563.701 1.563 1.563v23.558c0 .862-.701 1.563-1.563 1.563h-30.589c-.862 0-1.563-.701-1.563-1.563z"/><path d="m362.963 427.892c0 9.133 7.43 16.563 16.563 16.563h30.589c9.133 0 16.563-7.431 16.563-16.563v-23.558c0-9.133-7.43-16.563-16.563-16.563h-30.589c-9.133 0-16.563 7.431-16.563 16.563zm15-23.558c0-.862.701-1.563 1.563-1.563h30.589c.862 0 1.563.701 1.563 1.563v23.558c0 .862-.701 1.563-1.563 1.563h-30.589c-.862 0-1.563-.701-1.563-1.563z"/><path d="m95.209 323.841c0-9.133-7.431-16.563-16.564-16.563h-30.588c-9.133 0-16.563 7.431-16.563 16.563v23.558c0 9.133 7.43 16.563 16.563 16.563h30.589c9.133 0 16.564-7.431 16.564-16.563v-23.558zm-15 23.557c0 .862-.702 1.563-1.564 1.563h-30.588c-.862 0-1.563-.701-1.563-1.563v-23.558c0-.862.701-1.563 1.563-1.563h30.589c.862 0 1.564.701 1.564 1.563v23.558z"/><path d="m178.077 323.841c0-9.133-7.43-16.563-16.563-16.563h-30.589c-9.133 0-16.563 7.431-16.563 16.563v23.558c0 9.133 7.43 16.563 16.563 16.563h30.589c9.133 0 16.563-7.431 16.563-16.563zm-15 23.557c0 .862-.701 1.563-1.563 1.563h-30.589c-.862 0-1.563-.701-1.563-1.563v-23.558c0-.862.701-1.563 1.563-1.563h30.589c.862 0 1.563.701 1.563 1.563z"/><path d="m260.944 323.841c0-9.133-7.43-16.563-16.563-16.563h-30.589c-9.133 0-16.563 7.431-16.563 16.563v23.558c0 9.133 7.43 16.563 16.563 16.563h30.589c9.133 0 16.563-7.431 16.563-16.563zm-15 23.557c0 .862-.701 1.563-1.563 1.563h-30.589c-.862 0-1.563-.701-1.563-1.563v-23.558c0-.862.701-1.563 1.563-1.563h30.589c.862 0 1.563.701 1.563 1.563z"/><path d="m296.659 363.962h30.589c9.133 0 16.563-7.431 16.563-16.563v-23.558c0-9.133-7.43-16.563-16.563-16.563h-30.589c-9.133 0-16.563 7.431-16.563 16.563v23.558c0 9.132 7.43 16.563 16.563 16.563zm-1.563-40.121c0-.862.701-1.563 1.563-1.563h30.589c.862 0 1.563.701 1.563 1.563v23.558c0 .862-.701 1.563-1.563 1.563h-30.589c-.862 0-1.563-.701-1.563-1.563z"/><path d="m379.526 363.962h30.589c9.133 0 16.563-7.431 16.563-16.563v-23.558c0-9.133-7.43-16.563-16.563-16.563h-30.589c-9.133 0-16.563 7.431-16.563 16.563v23.558c0 9.132 7.43 16.563 16.563 16.563zm-1.563-40.121c0-.862.701-1.563 1.563-1.563h30.589c.862 0 1.563.701 1.563 1.563v23.558c0 .862-.701 1.563-1.563 1.563h-30.589c-.862 0-1.563-.701-1.563-1.563z"/><path d="m95.209 243.347c0-9.133-7.431-16.563-16.564-16.563h-30.588c-9.133 0-16.563 7.431-16.563 16.563v23.558c0 9.134 7.43 16.564 16.563 16.564h30.589c9.133 0 16.564-7.431 16.564-16.564v-23.558zm-15 23.557c0 .862-.702 1.564-1.564 1.564h-30.588c-.862 0-1.563-.702-1.563-1.564v-23.558c0-.862.701-1.563 1.563-1.563h30.589c.862 0 1.564.701 1.564 1.563v23.558z"/><path d="m178.077 243.347c0-9.133-7.43-16.563-16.563-16.563h-30.589c-9.133 0-16.563 7.431-16.563 16.563v23.558c0 9.134 7.43 16.564 16.563 16.564h30.589c9.133 0 16.563-7.431 16.563-16.564zm-15 23.557c0 .862-.701 1.564-1.563 1.564h-30.589c-.862 0-1.563-.702-1.563-1.564v-23.558c0-.862.701-1.563 1.563-1.563h30.589c.862 0 1.563.701 1.563 1.563z"/><path d="m260.944 243.347c0-9.133-7.43-16.563-16.563-16.563h-30.589c-9.133 0-16.563 7.431-16.563 16.563v23.558c0 9.134 7.43 16.564 16.563 16.564h30.589c9.133 0 16.563-7.431 16.563-16.564zm-15 23.557c0 .862-.701 1.564-1.563 1.564h-30.589c-.862 0-1.563-.702-1.563-1.564v-23.558c0-.862.701-1.563 1.563-1.563h30.589c.862 0 1.563.701 1.563 1.563z"/><path d="m462.266 32.459c-3.171-2.666-7.903-2.255-10.567.918-2.665 3.171-2.254 7.901.917 10.566 28.09 23.602 44.2 58.089 44.2 94.621 0 68.134-55.431 123.565-123.565 123.565s-123.565-55.432-123.565-123.565 55.432-123.564 123.565-123.564c18.953 0 37.156 4.203 54.103 12.493 3.719 1.818 8.212.279 10.033-3.441 1.82-3.721.279-8.213-3.442-10.033-19.016-9.302-39.436-14.019-60.694-14.019-76.405 0-138.565 62.16-138.565 138.564 0 76.405 62.16 138.565 138.565 138.565s138.565-62.16 138.565-138.565c0-40.973-18.06-79.647-49.55-106.105z"/><path d="m380.182 95.503c4.139.316 7.721-2.813 8.017-6.944.296-4.132-2.813-7.721-6.945-8.017l-44.921-3.22c-2.667-.187-5.28.636-7.35 2.322l-7.986 6.5c-2.341 1.905-3.745 4.729-3.851 7.745-.106 3.017 1.095 5.932 3.296 7.997l17.095 16.042c1.448 1.358 3.291 2.031 5.131 2.031 2 0 3.994-.795 5.471-2.368 2.834-3.021 2.684-7.767-.337-10.601l-13.31-12.49 2.565-2.088z"/><path d="m284.903 152.633c-3.467-.235-6.841.875-9.505 3.108l-4.513 3.787c-2.954 2.479-4.699 6.111-4.787 9.967s1.49 7.564 4.328 10.175l24.623 22.646c4.613 4.242 10.491 6.412 16.409 6.411 4.636 0 9.297-1.332 13.391-4.043l55.72-36.898 3.956 29.935c.437 3.306 2.471 6.184 5.441 7.7 2.969 1.518 6.494 1.475 9.428-.109l9.645-5.21c2.129-1.151 3.779-3.03 4.643-5.287l24.932-64.991 25.5-16.635c5.042-3.289 8.551-8.572 9.627-14.495s-.348-12.103-3.909-16.955c-4.12-5.615-10.182-9.271-17.07-10.296-6.815-1.012-13.61.674-19.154 4.753l-117.475 78.508zm37.444 15.957 119.747-80.026c.111-.074.22-.15.326-.23 2.346-1.757 5.235-2.485 8.134-2.055 2.898.432 5.45 1.97 7.183 4.333 1.151 1.567 1.593 3.484 1.245 5.398-.348 1.913-1.437 3.553-3.065 4.615l-46.172 30.12c-3.469 2.263-4.447 6.91-2.184 10.379 1.438 2.205 3.839 3.403 6.289 3.403 1.147 0 2.299-.278 3.373-.823l-16.901 44.057-1.85.999-4.603-34.836c-.339-2.563-1.974-4.771-4.328-5.844-2.354-1.069-5.093-.854-7.249.573l-65.725 43.524c-3.553 2.354-8.226 1.981-11.364-.903l-23.289-21.419 2.637-2.213 33.132 2.195c1.647.105 3.289-.329 4.664-1.247z"/></g></svg>