<svg height="512" viewBox="0 0 152 152" width="512" xmlns="http://www.w3.org/2000/svg"><g id="Layer_2" data-name="Layer 2"><g id="_41.passport" data-name="41.passport"><rect height="8.68" rx="1.01" width="28.5" x="61.75" y="57.6"/><path d="m89.9 85.38h-.07l-2.44-.47a12.47 12.47 0 0 0 -2.3.15c-2.15.56-4.27 1.21-6.39 1.88a2.42 2.42 0 0 1 -1.48.07l-9.84-2.61a4.16 4.16 0 0 0 -3.56.56c-.84.57-.86 1.18 0 1.74q2.79 1.83 5.6 3.64l.63.44c-1.38.77-2.68 1.51-4 2.21a.88.88 0 0 1 -.69 0c-1-.48-1.92-1-2.86-1.5a2.14 2.14 0 0 0 -1.83-.15c-.89.34-1.07.78-.6 1.62s1.09 2 1.67 3c-.22.21-.4.37-.55.54-.85.92-.62 1.79.6 2a5.34 5.34 0 0 0 1.95.06 109 109 0 0 0 18.92-5.26 25.57 25.57 0 0 0 7-3.58 7.15 7.15 0 0 0 1.47-1.72 1.7 1.7 0 0 0 -.26-2 1.93 1.93 0 0 0 -.97-.62z"/><path d="m84 93.89-5.5 1.94c-.44.15-.61.43-.25.84 1.31 1.49 2.62 3 4 4.47a1.13 1.13 0 0 0 .88.25 2.69 2.69 0 0 0 2.12-2.66c-.16-1.4-.34-2.91-.52-4.43-.13-.41-.36-.55-.73-.41z"/><path d="m76 0a76.22 76.22 0 0 0 -76 76 76.22 76.22 0 0 0 76 76 76.22 76.22 0 0 0 76-76 76.22 76.22 0 0 0 -76-76zm-16.06 42.57c5.52-1.1 11-2.19 16.58-3.31 5.08-1 10.15-2.12 15.22-3.18a5.56 5.56 0 0 1 1.77 0l.16.09c2.66 1.52 1.91 4.09 2 6.56h-36.34zm40.65 69.66a3.76 3.76 0 0 1 -3.76 3.77h-41.66a3.76 3.76 0 0 1 -3.76-3.77v-62.61a3.76 3.76 0 0 1 3.76-3.77h41.66a3.76 3.76 0 0 1 3.76 3.77z"/></g></g></svg>