<svg id="Layer_22" viewBox="0 0 64 64" xmlns="http://www.w3.org/2000/svg" data-name="Layer 22"><path d="m47.98 16.82c-1.28 0-2.51.18-3.68.52v-3.67c0-1.63-1.32-2.96-2.95-2.96h-1.36v-.76c0-.55-.44-1-1-1h-19.67c-.55 0-1 .45-1 1v.76h-1.35c-1.63 0-2.96 1.33-2.96 2.96v4.15h-6.38c-2.82 0-5.12 2.29-5.12 5.11v27c0 2.82 2.3 5.12 5.12 5.12h43.06c2.81 0 5.11-2.3 5.11-5.12v-8.59c3.44-2.45 5.69-6.47 5.69-11.01 0-7.45-6.06-13.51-13.51-13.51zm-35.41 36.23h-4.94c-1.72 0-3.12-1.4-3.12-3.12v-27c0-1.72 1.4-3.11 3.12-3.11h4.94zm3.44-39.38c0-.53.43-.96.96-.96h1.35v.76c0 .55.45 1 1 1h19.67c.56 0 1-.45 1-1v-.76h1.36c.53 0 .95.43.95.96v4.15h-26.29zm23.47 39.38h-20.07v-33.23h20.09c-3.07 2.48-5.03 6.27-5.03 10.51s1.96 8.01 5.01 10.49zm14.32-3.12c0 1.72-1.4 3.12-3.11 3.12h-4.36v-9.32c.54.08 1.09.11 1.65.11 2.08 0 4.06-.48 5.82-1.33zm-5.82-8.09c-6.35 0-11.51-5.16-11.51-11.51s5.16-11.51 11.51-11.51 11.51 5.16 11.51 11.51-5.17 11.51-11.51 11.51z"/><path d="m56.75 28.33-1.85 1.07-.96 6.95c-.05.3-.23.57-.5.73l-2.18 1.26c-.3.17-.67.18-.98.01-.16-.09-.3-.22-.39-.38-.08-.14-.12-.29-.12-.46l-.22-5.03-2.13 1.24-.63 4.37c-.05.3-.23.57-.5.72l-1.62.94c-.31.18-.68.17-.99 0-.16-.08-.28-.21-.37-.37-.09-.14-.13-.3-.14-.47l-.12-4.69-.41-.72-4-2.45c-.31-.18-.49-.52-.48-.87 0-.35.19-.67.5-.85l1.62-.93c.27-.16.59-.18.87-.07l4.11 1.64 2.14-1.23-4.26-2.7c-.14-.08-.25-.2-.33-.34-.09-.16-.14-.34-.13-.53 0-.35.19-.66.49-.84l2.19-1.26c.26-.15.59-.18.87-.06l6.51 2.65 1.85-1.07c1-.58 2.28-.24 2.85.75l.08.13c.57 1 .23 2.28-.77 2.86z"/></svg>