<?xml version="1.0"?>
<svg xmlns="http://www.w3.org/2000/svg" data-name="Layer 1" id="Layer_1" viewBox="0 0 128 128"><title/><path d="M42.3717,7.82428a1.8928,1.8928,0,0,0,.70081-.12994,1.98437,1.98437,0,1,0-.70081.12994Z"/><path d="M35.11511,11.05621a1.942,1.942,0,0,0,.931-.23053,1.9993,1.9993,0,1,0-.931.23053Z"/><path d="M22.13354,20.16a1.99885,1.99885,0,1,0-1.35132-3.47131V16.679A2.00064,2.00064,0,0,0,22.13354,20.16Z"/><path d="M2.14508,70.07281a2.00518,2.00518,0,1,0-2.122-1.87006,1.98679,1.98679,0,0,0,1.99207,1.87006Z"/><path d="M1.88513,62.12964h.11969a1.94962,1.94962,0,1,0-.11969,0Z"/><path d="M4.36737,46.45251a1.96788,1.96788,0,0,0,.63043.09961,1.99467,1.99467,0,1,0-.63043-.09961Z"/><path d="M28.33887,15.19781a1.96284,1.96284,0,0,0,1.14117-.3703,1.97525,1.97525,0,1,0-1.14117.3703Z"/><path d="M10.77307,31.92529a1.99953,1.99953,0,1,0-.59039-2.761A2.00778,2.00778,0,0,0,10.77307,31.92529Z"/><path d="M7.09979,38.98907a2.07379,2.07379,0,0,0,.87042.18958,1.98249,1.98249,0,1,0-.87042-.18958Z"/><path d="M2.61572,54.20605a1.67659,1.67659,0,0,0,.38025.0401,1.99909,1.99909,0,1,0-1.96173-2.381A1.99041,1.99041,0,0,0,2.61572,54.20605Z"/><path d="M49.989,5.543a1.72492,1.72492,0,0,0,.45007-.04987A2.01038,2.01038,0,1,0,49.989,5.543Z"/><path d="M94.93964,12.57648a1.94151,1.94151,0,0,0,1.03119.29016,2.007,2.007,0,1,0-1.03119-.29016Z"/><path d="M101.26569,16.96912a1.9696,1.9696,0,0,0,1.24084.42987,1.99687,1.99687,0,0,0,1.24139-3.56219V13.827a2.00214,2.00214,0,1,0-2.48224,3.14209Z"/><path d="M108.402,22.73157a2.00623,2.00623,0,1,0-1.43146-.61066A1.96406,1.96406,0,0,0,108.402,22.73157Z"/><path d="M121.99451,48.58337a2.00637,2.00637,0,0,0,1.94171,1.49091,1.85261,1.85261,0,0,0,.51025-.07031,1.99745,1.99745,0,1,0-2.452-1.42059Z"/><path d="M125.2074,53.88562a1.99971,1.99971,0,0,0,.26,3.9823,2.11258,2.11258,0,0,0,.2605-.01074,1.9979,1.9979,0,0,0,1.72131-2.251h.01025A2.01347,2.01347,0,0,0,125.2074,53.88562Z"/><path d="M119.55237,41.29974a2.00106,2.00106,0,0,0,2.61224,1.09033,2.00072,2.00072,0,1,0-2.61224-1.09033Z"/><path d="M57.836,4.27283c.06012,0,.13-.00977.19012-.00977a2.00021,2.00021,0,1,0-.38025-3.9823A1.98643,1.98643,0,0,0,55.84393,2.4624,2.00746,2.00746,0,0,0,57.836,4.27283Z"/><path d="M65.723,3.99243a.1196.1196,0,0,0,.06012.01074,2.41921,2.41921,0,1,0-.06012-.01074Z"/><path d="M88.11359,9.03479a2.04745,2.04745,0,0,0,.80054.17,2.00749,2.00749,0,1,0-.80054-.17Z"/><path d="M80.88678,6.39392a1.82323,1.82323,0,0,0,.56055.08014,2.0018,2.0018,0,1,0-.56055-.08014Z"/><path d="M73.37994,4.71344c.11041.00977.21014.01953.32062.01953a1.97056,1.97056,0,1,0-.32062-.01953Z"/><path d="M4.9978,75.56555a1.99928,1.99928,0,1,0-1.96173,2.39172,2.51162,2.51162,0,0,0,.38019-.04A1.99882,1.99882,0,0,0,4.9978,75.56555Z"/><path d="M114.87769,99.48682a2.00215,2.00215,0,0,0-2.39185,3.21143,2.04885,2.04885,0,0,0,1.20081.38983,1.97132,1.97132,0,0,0,1.60156-.80017A1.99852,1.99852,0,0,0,114.87769,99.48682Z"/><path d="M113.57672,28.76465a2.00139,2.00139,0,0,0,1.60156-3.20172v-.01074a2.00463,2.00463,0,1,0-1.60156,3.21246Z"/><path d="M73.57007,123.25757a2.00472,2.00472,0,0,0,.32056,3.9823,1.69194,1.69194,0,0,0,.32013-.03027,2.00182,2.00182,0,1,0-.64069-3.952Z"/><path d="M107.09082,105.74945a2.00141,2.00141,0,0,0,1.44122,3.39221,1.9641,1.9641,0,0,0,1.43152-.61066,1.99937,1.99937,0,1,0-2.87274-2.78156Z"/><path d="M81.0769,121.54681a2.002,2.002,0,0,0,.56055,3.92175,2.21109,2.21109,0,0,0,.5708-.08014,2.00237,2.00237,0,0,0-1.13135-3.84161Z"/><path d="M95.09991,115.32422a2.00258,2.00258,0,1,0,2.7525.67023A2.01392,2.01392,0,0,0,95.09991,115.32422Z"/><path d="M88.28363,118.88544a2.00267,2.00267,0,0,0,.82056,3.83185,1.96655,1.96655,0,0,0,.81085-.17,2.0044,2.0044,0,0,0-1.63141-3.6618Z"/><path d="M101.39569,110.92175a2.0021,2.0021,0,0,0-.31036,2.81189,1.97568,1.97568,0,0,0,1.56152.75031,1.99383,1.99383,0,0,0,1.56146-3.25146A2.0026,2.0026,0,0,0,101.39569,110.92175Z"/><path d="M124.48657,77.78729a2.019,2.019,0,0,0-2.4422,1.43036,1.99318,1.99318,0,0,0,1.43146,2.44055,1.76546,1.76546,0,0,0,.51025.07037,2.00163,2.00163,0,0,0,.50049-3.94128Z"/><path d="M125.74792,69.94287a2.00261,2.00261,0,1,0-.51068,3.97253,2.4107,2.4107,0,0,0,.2605.00977,1.999,1.999,0,0,0,.25018-3.9823Z"/><path d="M125.98792,61.79944a1.99871,1.99871,0,0,0-1.99158,2.00092v.20032a2.00183,2.00183,0,0,0,4.00366,0v-.21008A1.98862,1.98862,0,0,0,125.98792,61.79944Z"/><path d="M119.01184,92.6936a2.00088,2.00088,0,1,0-1.972,3.48212,1.96141,1.96141,0,0,0,.99115.25983,2.00027,2.00027,0,0,0,.9809-3.74194Z"/><path d="M117.94055,35.39758a1.94251,1.94251,0,0,0,.98083-.26086,1.98691,1.98691,0,0,0,.75073-2.721,2.001,2.001,0,1,0-1.73157,2.98187Z"/><path d="M122.2345,85.42072a2.00192,2.00192,0,1,0-1.50134,3.71167,1.91789,1.91789,0,0,0,.74091.13971,1.99773,1.99773,0,0,0,1.86151-1.24078v-.00977A1.99213,1.99213,0,0,0,122.2345,85.42072Z"/><path d="M43.25238,120.36658a2.00352,2.00352,0,1,0-1.38116,3.76147,2.04661,2.04661,0,0,0,.69061.12018,2.0016,2.0016,0,0,0,.69055-3.88165Z"/><path d="M29.63013,113.27344a2.00153,2.00153,0,0,0-2.29218,3.2818,2.037,2.037,0,0,0,1.151.35956,2,2,0,0,0,1.14117-3.64136Z"/><path d="M6.95953,82.99969a2.00487,2.00487,0,1,0-1.90161,2.6311,1.96936,1.96936,0,0,0,.63043-.10065A2,2,0,0,0,6.95953,82.99969Z"/><path d="M20.78223,108.62091a2.00173,2.00173,0,1,0,2.83264-.13971A1.99419,1.99419,0,0,0,20.78223,108.62091Z"/><path d="M10.87329,96.23529a1.99951,1.99951,0,0,0,1.09082,3.67163,2.001,2.001,0,1,0-1.09082-3.67163Z"/><path d="M15.42725,102.73828a2.00134,2.00134,0,0,0,1.301,3.52216,2.00147,2.00147,0,1,0-1.301-3.52216Z"/><path d="M16.60846,25.88245a2.00614,2.00614,0,1,0-1.2912-.47974A1.99684,1.99684,0,0,0,16.60846,25.88245Z"/><path d="M36.21619,117.25476a2.00306,2.00306,0,1,0-1.85181,3.55243,1.91458,1.91458,0,0,0,.92078.22961,2.00793,2.00793,0,0,0,.931-3.782Z"/><path d="M65.91315,123.99811A2.00154,2.00154,0,0,0,65.98352,128h.05963a2.002,2.002,0,1,0-.13-4.00189Z"/><path d="M58.2265,123.75781a2.00023,2.00023,0,1,0-.38074,3.9823,1.31206,1.31206,0,0,0,.19012.00977,2.00056,2.00056,0,0,0,.19061-3.99207Z"/><path d="M50.62921,122.54724a2.00018,2.00018,0,1,0-.88068,3.90222,1.65262,1.65262,0,0,0,.44037.0498,2.00048,2.00048,0,0,0,.44031-3.952Z"/><path d="M9.85229,90.12213a1.99337,1.99337,0,1,0-.92072,2.67212A2.00423,2.00423,0,0,0,9.85229,90.12213Z"/><path d="M69.88165,38.48688H66.009c.26563,4.13275,1.3075,6.63617,1.93634,7.36084C68.5741,45.123,69.616,42.61963,69.88165,38.48688Z"/><path d="M63.22858,45.30554a25.4063,25.4063,0,0,1-1.22772-6.81866h-3.863A10.0372,10.0372,0,0,0,63.22858,45.30554Z"/><path d="M63.22858,27.66638a10.03733,10.03733,0,0,0-5.0907,6.81866h3.863A25.4063,25.4063,0,0,1,63.22858,27.66638Z"/><path d="M67.94531,27.12421c-.62885.72473-1.67072,3.22815-1.93634,7.36084h3.87268C69.616,30.35236,68.5741,27.84894,67.94531,27.12421Z"/><path d="M77.75269,34.485a10.03716,10.03716,0,0,0-5.0907-6.81866A25.4063,25.4063,0,0,1,73.88971,34.485Z"/><path d="M77.75269,38.48688h-3.863A25.4063,25.4063,0,0,1,72.662,45.30554,10.037,10.037,0,0,0,77.75269,38.48688Z"/><path d="M104.569,87.25848l5.10669-11.39783a3.07676,3.07676,0,0,0-.15686-2.9809,3.13709,3.13709,0,0,0-2.71-1.37756H98.80933a6.02553,6.02553,0,0,0-2.3576.53833c-.7619.337-1.81024,1.11865-4.2998,4.53723l-1.5752,2.16211h-1.646c.01544.21558.03369.43042.03369.64972v3.35217h2.63086a2.00059,2.00059,0,0,0,1.61816-.82367l2.1748-2.98572a18.08153,18.08153,0,0,1,2.6792-3.23,2.13792,2.13792,0,0,1,.74188-.1983h6.63934L100.91479,85.624a4.99289,4.99289,0,0,1-1.39825,1.64038L83.77905,97.7428a4.83156,4.83156,0,0,1-2.04877.61554H51.46252a1.99927,1.99927,0,0,0-1.33374.509l-3.53546,3.15771c-.04071.03632-.07111.07916-.10815.118L30.67645,85.53516l10.63129-9.4176a3.33192,3.33192,0,0,1,1.67-.61353H59.0578a9.34868,9.34868,0,0,1,2.63763.48163l3.731,1.41473a13.22354,13.22354,0,0,0,4.06036.74255h9.99493a1.37682,1.37682,0,0,1,1.47546,1.24664V84.262a1.37686,1.37686,0,0,1-1.47546,1.2467H59.49225a2.00092,2.00092,0,1,0,0,4.00183H79.48169A5.37366,5.37366,0,0,0,84.96082,84.262V79.38959a5.37361,5.37361,0,0,0-5.47913-5.24847H69.48676a9.35054,9.35054,0,0,1-2.63867-.48169l-3.7309-1.41473a13.22,13.22,0,0,0-4.05939-.74249H42.97772A7.19489,7.19489,0,0,0,38.651,73.123L27.809,82.72723a5.57467,5.57467,0,0,0-6.80731-.11639l-2.38892,2.00775a2.00121,2.00121,0,0,0,2.57758,3.062l2.38739-2.0058a2.03568,2.03568,0,0,1,2.36646.69464l19.41608,20.39813a2.141,2.141,0,0,1-.01514,2.90564l-3.361,3.45862a2.00138,2.00138,0,0,0,2.87177,2.78839l3.36145-3.45862a6.15585,6.15585,0,0,0,.86859-7.32361,1.96538,1.96538,0,0,0,.17487-.12909l2.96558-2.64868H81.73029a8.63781,8.63781,0,0,0,4.26611-1.28571L101.73633,90.594A8.84459,8.84459,0,0,0,104.569,87.25848Z"/><path d="M41.92,19.48V67.57h.02a6.79555,6.79555,0,0,1,.9-.06c.04,0,.09-.01.14-.01H53.43a2,2,0,0,1,0-4H82.46a2,2,0,1,1,0,4H59.06a17.03054,17.03054,0,0,1,5.48,1.01l3.73,1.41a6.23952,6.23952,0,0,0,1.22.22h9.99a9.52427,9.52427,0,0,1,8.3,4.78,3.69973,3.69973,0,0,1,.75-.16l.39-.54c2.14-2.94,3.58-4.48,5.05-5.38V19.48a6.00684,6.00684,0,0,0-6.00995-6H47.93A6.01332,6.01332,0,0,0,41.92,19.48ZM76.95,59.5H58.94a2.005,2.005,0,0,1,0-4.01H76.95a2.005,2.005,0,1,1,0,4.01Zm-9-37.02A14.005,14.005,0,1,1,53.93,36.49,14.02609,14.02609,0,0,1,67.95,22.48Z"/></svg>
