<svg id="Layer_1" enable-background="new 0 0 512 512" viewBox="0 0 512 512" xmlns="http://www.w3.org/2000/svg"><g clip-rule="evenodd" fill-rule="evenodd"><g><path d="m165.94 46.413 78.37 43.602 56.786-32.785-107.527-26.769z" fill="#fff"/><path d="m68.779 384.778h44.779c5.508 0 10 4.492 10 10v52.825c0 5.508-4.492 10-10 10h-44.779c-5.508 0-10-4.492-10-10v-52.825c.001-5.508 4.493-10 10-10z" fill="#f76c82"/><path d="m192.927 327.093h44.779c5.508 0 10 4.492 10 10v110.509c0 5.508-4.492 10-10 10-14.926 0-29.853 0-44.779 0-5.508 0-10-4.492-10-10 0-36.837 0-73.673 0-110.509 0-5.508 4.492-10 10-10z" fill="#fdcd56"/><path d="m317.074 269.408h44.779c5.508 0 10 4.492 10 10v168.194c0 5.508-4.492 10-10 10-14.926 0-29.853 0-44.779 0-5.508 0-10-4.492-10-10 0-56.065 0-112.13 0-168.194 0-5.508 4.493-10 10-10z" fill="#c6ea94"/><path d="m441.222 211.723h44.778c5.508 0 10 4.492 10 10v225.879c0 5.508-4.492 10-10 10h-44.779c-5.508 0-10-4.492-10-10v-225.879c.001-5.507 4.493-10 10.001-10z" fill="#66d4f1"/><g><path d="m165.94 46.413 78.37 43.602 38.707-4.208 18.079-28.577-107.527-26.769z" fill="#cad0d7"/><path d="m147.708 175.075-57.75-47.095 21.082-13.978 56.471 20.352 194.139-112.086c32.188-18.584 95.992 6.744 34.912 42.009l-44.39 25.629-41.279 143.764-27.63 15.952 1.932-121.61s-115.87 63.868-137.487 47.063z" fill="#e4e8eb"/></g></g><path d="m502.993 496.014c0 3.858-3.106 7.002-6.964 7.002h-480.011c-3.858 0-7.011-3.143-7.011-7.002v-480.001c0-3.868 3.153-7.002 7.011-7.002s7.011 3.134 7.011 7.002v472.999h472.999c3.859 0 6.965 3.129 6.965 7.002zm-13.976-45.399v-231.884h-50.773v231.883h50.773zm7.012-245.883h-64.795c-3.858 0-7.011 3.129-7.011 7.002v245.878c0 3.873 3.153 7.002 7.011 7.002h64.795c3.858 0 6.964-3.129 6.964-7.002v-245.878c0-3.872-3.106-7.002-6.964-7.002zm-131.19 245.883v-174.203h-50.773v174.203zm-57.784-188.202c-3.859 0-6.964 3.138-6.964 7.002v188.197c0 3.873 3.106 7.002 6.964 7.002h64.795c3.858 0 7.011-3.129 7.011-7.002v-188.198c0-3.863-3.153-7.002-7.011-7.002h-64.795zm-66.348 188.202v-116.509h-50.773v116.509zm-57.784-130.513c-3.859 0-6.964 3.129-6.964 7.002v130.508c0 3.873 3.106 7.002 6.964 7.002h64.795c3.858 0 7.011-3.129 7.011-7.002v-130.508c0-3.873-3.153-7.002-7.011-7.002zm-117.12 71.679v58.833h50.772v-58.833zm-7.011 72.833h64.795c3.858 0 6.964-3.129 6.964-7.002v-72.828c0-3.858-3.106-7.002-6.964-7.002h-64.795c-3.859 0-7.011 3.143-7.011 7.002v72.828c-.001 3.872 3.152 7.002 7.011 7.002zm53.172-342.821-10.211 6.78 50.302 41.018c1.271.922 12.517 6.879 69.642-18.107 31.009-13.58 59.854-29.433 60.136-29.593 1.035-.579 2.212-.87 3.341-.87 1.271 0 2.541.334 3.623 1.002 2.165 1.289 3.435 3.618 3.388 6.108l-1.741 109.262 14.493-8.362 40.515-141.048c.471-1.741 1.647-3.223 3.247-4.131l44.373-25.631c16.516-9.538 24.61-19.236 21.081-25.306-5.223-9.053-31.386-14.733-48.984-4.574l-194.15 112.081c-1.788 1.031-3.953 1.233-5.882.532zm68.183-75.481 64.089 35.672 38.35-22.139-87.946-21.905zm-94.628 87.104 57.784 47.097c.047.033.094.061.094.099 7.246 5.614 23.763 10.009 83.994-16.352 20.092-8.79 39.244-18.516 50.631-24.469l-1.741 109.732c-.047 2.518 1.271 4.87 3.435 6.141 1.082.649 2.353.969 3.529.969 1.223 0 2.447-.311 3.529-.941l27.621-15.952c1.553-.908 2.729-2.39 3.247-4.127l40.468-141.051 41.973-24.21c33.833-19.551 30.962-36.228 26.21-44.439-10.117-17.533-45.785-22.61-68.136-9.698l-58.113 33.55-104.792-26.082c-1.741-.438-3.623-.179-5.176.729l-27.621 15.952c-2.165 1.261-3.529 3.59-3.529 6.117.047 2.522 1.412 4.833 3.623 6.061l67.571 37.592-63.289 36.538-53.408-19.25c-2.07-.748-4.376-.471-6.258.762l-21.081 13.971c-1.835 1.228-3.012 3.27-3.106 5.486-.094 2.222.847 4.372 2.541 5.775z"/></g></svg>